<mxfile host="Electron" modified="2024-05-20T03:16:20.658Z" agent="Mozilla/5.0 (Windows NT 10.0; Win64; x64) AppleWebKit/537.36 (KHTML, like Gecko) draw.io/24.4.0 Chrome/120.0.6099.109 Electron/28.1.0 Safari/537.36" etag="Wpu7bBlKhzMZMSMoXP3s" version="24.4.0" type="device">
  <diagram id="C5RBs43oDa-KdzZeNtuy" name="Page-1">
    <mxGraphModel dx="2261" dy="2013" grid="1" gridSize="10" guides="1" tooltips="1" connect="1" arrows="1" fold="1" page="1" pageScale="1" pageWidth="827" pageHeight="1169" math="0" shadow="0">
      <root>
        <mxCell id="WIyWlLk6GJQsqaUBKTNV-0" />
        <mxCell id="WIyWlLk6GJQsqaUBKTNV-1" parent="WIyWlLk6GJQsqaUBKTNV-0" />
        <mxCell id="WIyWlLk6GJQsqaUBKTNV-3" value="Pessoa" style="rounded=1;whiteSpace=wrap;html=1;fontSize=12;glass=0;strokeWidth=1;shadow=0;" parent="WIyWlLk6GJQsqaUBKTNV-1" vertex="1">
          <mxGeometry x="90" y="20" width="120" height="40" as="geometry" />
        </mxCell>
        <mxCell id="ChUtcl5LDInXRiSF2QFf-1" value="Pessoa Fisica&amp;nbsp;" style="rounded=1;whiteSpace=wrap;html=1;" vertex="1" parent="WIyWlLk6GJQsqaUBKTNV-1">
          <mxGeometry x="9.999999999999998" y="310" width="120" height="50" as="geometry" />
        </mxCell>
        <mxCell id="ChUtcl5LDInXRiSF2QFf-2" value="Pessoa Juridica" style="rounded=1;whiteSpace=wrap;html=1;" vertex="1" parent="WIyWlLk6GJQsqaUBKTNV-1">
          <mxGeometry x="150" y="290" width="120" height="50" as="geometry" />
        </mxCell>
        <mxCell id="ChUtcl5LDInXRiSF2QFf-86" value="" style="edgeStyle=orthogonalEdgeStyle;rounded=0;orthogonalLoop=1;jettySize=auto;html=1;endArrow=none;endFill=0;" edge="1" parent="WIyWlLk6GJQsqaUBKTNV-1" source="ChUtcl5LDInXRiSF2QFf-3" target="ChUtcl5LDInXRiSF2QFf-83">
          <mxGeometry relative="1" as="geometry" />
        </mxCell>
        <mxCell id="ChUtcl5LDInXRiSF2QFf-101" value="" style="edgeStyle=orthogonalEdgeStyle;rounded=0;orthogonalLoop=1;jettySize=auto;html=1;" edge="1" parent="WIyWlLk6GJQsqaUBKTNV-1" source="ChUtcl5LDInXRiSF2QFf-3" target="ChUtcl5LDInXRiSF2QFf-83">
          <mxGeometry relative="1" as="geometry" />
        </mxCell>
        <mxCell id="ChUtcl5LDInXRiSF2QFf-102" value="n" style="edgeLabel;html=1;align=center;verticalAlign=middle;resizable=0;points=[];" vertex="1" connectable="0" parent="ChUtcl5LDInXRiSF2QFf-101">
          <mxGeometry x="0.4" relative="1" as="geometry">
            <mxPoint as="offset" />
          </mxGeometry>
        </mxCell>
        <mxCell id="ChUtcl5LDInXRiSF2QFf-3" value="Produto" style="rounded=1;whiteSpace=wrap;html=1;" vertex="1" parent="WIyWlLk6GJQsqaUBKTNV-1">
          <mxGeometry x="880" y="65" width="120" height="40" as="geometry" />
        </mxCell>
        <mxCell id="ChUtcl5LDInXRiSF2QFf-4" value="Funcionario&amp;nbsp;" style="rounded=1;whiteSpace=wrap;html=1;" vertex="1" parent="WIyWlLk6GJQsqaUBKTNV-1">
          <mxGeometry x="85" y="540" width="110" height="40" as="geometry" />
        </mxCell>
        <mxCell id="ChUtcl5LDInXRiSF2QFf-5" value="TelComerc" style="ellipse;whiteSpace=wrap;html=1;" vertex="1" parent="WIyWlLk6GJQsqaUBKTNV-1">
          <mxGeometry x="-4.380000000000001" y="200" width="68.75" height="50" as="geometry" />
        </mxCell>
        <mxCell id="ChUtcl5LDInXRiSF2QFf-6" value="TelRes" style="ellipse;whiteSpace=wrap;html=1;" vertex="1" parent="WIyWlLk6GJQsqaUBKTNV-1">
          <mxGeometry x="-1.2500000000000018" y="156.25" width="62.5" height="45" as="geometry" />
        </mxCell>
        <mxCell id="ChUtcl5LDInXRiSF2QFf-7" value="Nome" style="ellipse;whiteSpace=wrap;html=1;" vertex="1" parent="WIyWlLk6GJQsqaUBKTNV-1">
          <mxGeometry x="1.25" y="120" width="60.62" height="40" as="geometry" />
        </mxCell>
        <mxCell id="ChUtcl5LDInXRiSF2QFf-8" value="Codigo" style="ellipse;whiteSpace=wrap;html=1;" vertex="1" parent="WIyWlLk6GJQsqaUBKTNV-1">
          <mxGeometry y="80" width="60" height="40" as="geometry" />
        </mxCell>
        <mxCell id="ChUtcl5LDInXRiSF2QFf-9" value="Celular" style="ellipse;whiteSpace=wrap;html=1;" vertex="1" parent="WIyWlLk6GJQsqaUBKTNV-1">
          <mxGeometry x="-2.83" y="250" width="61.89" height="37.5" as="geometry" />
        </mxCell>
        <mxCell id="ChUtcl5LDInXRiSF2QFf-11" value="" style="endArrow=none;html=1;rounded=0;edgeStyle=orthogonalEdgeStyle;entryX=0.5;entryY=0;entryDx=0;entryDy=0;exitX=0;exitY=0.25;exitDx=0;exitDy=0;" edge="1" parent="WIyWlLk6GJQsqaUBKTNV-1" source="WIyWlLk6GJQsqaUBKTNV-3" target="ChUtcl5LDInXRiSF2QFf-8">
          <mxGeometry width="50" height="50" relative="1" as="geometry">
            <mxPoint x="210" y="60" as="sourcePoint" />
            <mxPoint x="238.38" y="52.00999999999999" as="targetPoint" />
          </mxGeometry>
        </mxCell>
        <mxCell id="ChUtcl5LDInXRiSF2QFf-12" value="Data Nasc" style="ellipse;whiteSpace=wrap;html=1;" vertex="1" parent="WIyWlLk6GJQsqaUBKTNV-1">
          <mxGeometry x="-85" y="460" width="60" height="30" as="geometry" />
        </mxCell>
        <mxCell id="ChUtcl5LDInXRiSF2QFf-14" value="RG" style="ellipse;whiteSpace=wrap;html=1;" vertex="1" parent="WIyWlLk6GJQsqaUBKTNV-1">
          <mxGeometry x="-82.5" y="430" width="50" height="30" as="geometry" />
        </mxCell>
        <mxCell id="ChUtcl5LDInXRiSF2QFf-15" value="CPF" style="ellipse;whiteSpace=wrap;html=1;" vertex="1" parent="WIyWlLk6GJQsqaUBKTNV-1">
          <mxGeometry x="-82.5" y="400" width="50" height="30" as="geometry" />
        </mxCell>
        <mxCell id="ChUtcl5LDInXRiSF2QFf-16" value="sexo" style="ellipse;whiteSpace=wrap;html=1;" vertex="1" parent="WIyWlLk6GJQsqaUBKTNV-1">
          <mxGeometry x="-90" y="490" width="70" height="30" as="geometry" />
        </mxCell>
        <mxCell id="ChUtcl5LDInXRiSF2QFf-17" value="CodigoCliente" style="ellipse;whiteSpace=wrap;html=1;fontSize=10;" vertex="1" parent="WIyWlLk6GJQsqaUBKTNV-1">
          <mxGeometry x="-90" y="520" width="70" height="30" as="geometry" />
        </mxCell>
        <mxCell id="ChUtcl5LDInXRiSF2QFf-20" value="Representante" style="ellipse;whiteSpace=wrap;html=1;fontSize=10;" vertex="1" parent="WIyWlLk6GJQsqaUBKTNV-1">
          <mxGeometry x="200" y="430" width="67.5" height="50" as="geometry" />
        </mxCell>
        <mxCell id="ChUtcl5LDInXRiSF2QFf-21" value="IE" style="ellipse;whiteSpace=wrap;html=1;" vertex="1" parent="WIyWlLk6GJQsqaUBKTNV-1">
          <mxGeometry x="208.75" y="400" width="50" height="30" as="geometry" />
        </mxCell>
        <mxCell id="ChUtcl5LDInXRiSF2QFf-22" value="CNPJ" style="ellipse;whiteSpace=wrap;html=1;" vertex="1" parent="WIyWlLk6GJQsqaUBKTNV-1">
          <mxGeometry x="208.75" y="370" width="50" height="30" as="geometry" />
        </mxCell>
        <mxCell id="ChUtcl5LDInXRiSF2QFf-25" value="CodigoCliente" style="ellipse;whiteSpace=wrap;html=1;fontSize=10;" vertex="1" parent="WIyWlLk6GJQsqaUBKTNV-1">
          <mxGeometry x="200" y="480" width="70" height="30" as="geometry" />
        </mxCell>
        <mxCell id="ChUtcl5LDInXRiSF2QFf-26" value="&lt;br&gt;&lt;span style=&quot;color: rgb(240, 240, 240); font-family: Helvetica; font-size: 12px; font-style: normal; font-variant-ligatures: normal; font-variant-caps: normal; font-weight: 400; letter-spacing: normal; orphans: 2; text-align: center; text-indent: 0px; text-transform: none; widows: 2; word-spacing: 0px; -webkit-text-stroke-width: 0px; white-space: normal; background-color: rgb(27, 29, 30); text-decoration-thickness: initial; text-decoration-style: initial; text-decoration-color: initial; display: inline !important; float: none;&quot;&gt;QntMinima&lt;/span&gt;&lt;div&gt;&lt;br/&gt;&lt;/div&gt;" style="ellipse;whiteSpace=wrap;html=1;" vertex="1" parent="WIyWlLk6GJQsqaUBKTNV-1">
          <mxGeometry x="867.74" y="390" width="70.51" height="45" as="geometry" />
        </mxCell>
        <mxCell id="ChUtcl5LDInXRiSF2QFf-27" value="QntEstoque" style="ellipse;whiteSpace=wrap;html=1;" vertex="1" parent="WIyWlLk6GJQsqaUBKTNV-1">
          <mxGeometry x="864.76" y="340" width="70.51" height="50" as="geometry" />
        </mxCell>
        <mxCell id="ChUtcl5LDInXRiSF2QFf-28" value="precoVenda" style="ellipse;whiteSpace=wrap;html=1;" vertex="1" parent="WIyWlLk6GJQsqaUBKTNV-1">
          <mxGeometry x="864.76" y="290" width="69.75" height="50" as="geometry" />
        </mxCell>
        <mxCell id="ChUtcl5LDInXRiSF2QFf-30" value="descricao" style="ellipse;whiteSpace=wrap;html=1;" vertex="1" parent="WIyWlLk6GJQsqaUBKTNV-1">
          <mxGeometry x="860.25" y="200" width="78" height="45" as="geometry" />
        </mxCell>
        <mxCell id="ChUtcl5LDInXRiSF2QFf-31" value="codigo" style="ellipse;whiteSpace=wrap;html=1;" vertex="1" parent="WIyWlLk6GJQsqaUBKTNV-1">
          <mxGeometry x="858.5" y="155" width="81.5" height="45" as="geometry" />
        </mxCell>
        <mxCell id="ChUtcl5LDInXRiSF2QFf-32" value="T/D" style="shape=parallelogram;perimeter=parallelogramPerimeter;whiteSpace=wrap;html=1;fixedSize=1;" vertex="1" parent="WIyWlLk6GJQsqaUBKTNV-1">
          <mxGeometry x="110" y="120" width="90" height="40" as="geometry" />
        </mxCell>
        <mxCell id="ChUtcl5LDInXRiSF2QFf-33" value="" style="endArrow=none;html=1;rounded=0;" edge="1" parent="WIyWlLk6GJQsqaUBKTNV-1">
          <mxGeometry width="50" height="50" relative="1" as="geometry">
            <mxPoint x="160" y="120" as="sourcePoint" />
            <mxPoint x="160" y="60" as="targetPoint" />
          </mxGeometry>
        </mxCell>
        <mxCell id="ChUtcl5LDInXRiSF2QFf-34" value="" style="endArrow=none;html=1;rounded=0;exitX=0.25;exitY=0;exitDx=0;exitDy=0;" edge="1" parent="WIyWlLk6GJQsqaUBKTNV-1" source="ChUtcl5LDInXRiSF2QFf-1">
          <mxGeometry width="50" height="50" relative="1" as="geometry">
            <mxPoint x="100" y="210" as="sourcePoint" />
            <mxPoint x="150" y="160" as="targetPoint" />
          </mxGeometry>
        </mxCell>
        <mxCell id="ChUtcl5LDInXRiSF2QFf-35" value="" style="endArrow=none;html=1;rounded=0;exitX=0.5;exitY=0;exitDx=0;exitDy=0;" edge="1" parent="WIyWlLk6GJQsqaUBKTNV-1" source="ChUtcl5LDInXRiSF2QFf-2">
          <mxGeometry width="50" height="50" relative="1" as="geometry">
            <mxPoint x="190" y="210" as="sourcePoint" />
            <mxPoint x="160" y="160" as="targetPoint" />
          </mxGeometry>
        </mxCell>
        <mxCell id="ChUtcl5LDInXRiSF2QFf-36" value="" style="endArrow=none;html=1;rounded=0;edgeStyle=orthogonalEdgeStyle;entryX=1;entryY=0;entryDx=0;entryDy=0;" edge="1" parent="WIyWlLk6GJQsqaUBKTNV-1" target="ChUtcl5LDInXRiSF2QFf-22">
          <mxGeometry width="50" height="50" relative="1" as="geometry">
            <mxPoint x="270" y="320" as="sourcePoint" />
            <mxPoint x="320" y="270" as="targetPoint" />
            <Array as="points">
              <mxPoint x="270" y="321" />
              <mxPoint x="290" y="321" />
              <mxPoint x="290" y="374" />
            </Array>
          </mxGeometry>
        </mxCell>
        <mxCell id="ChUtcl5LDInXRiSF2QFf-37" value="Possui" style="rhombus;whiteSpace=wrap;html=1;" vertex="1" parent="WIyWlLk6GJQsqaUBKTNV-1">
          <mxGeometry x="335" y="50" width="70" height="70" as="geometry" />
        </mxCell>
        <mxCell id="ChUtcl5LDInXRiSF2QFf-38" value="" style="endArrow=none;html=1;rounded=0;edgeStyle=orthogonalEdgeStyle;entryX=0.5;entryY=0;entryDx=0;entryDy=0;exitX=1;exitY=0.5;exitDx=0;exitDy=0;" edge="1" parent="WIyWlLk6GJQsqaUBKTNV-1" source="WIyWlLk6GJQsqaUBKTNV-3" target="ChUtcl5LDInXRiSF2QFf-37">
          <mxGeometry width="50" height="50" relative="1" as="geometry">
            <mxPoint x="210" y="50" as="sourcePoint" />
            <mxPoint x="300" y="50" as="targetPoint" />
          </mxGeometry>
        </mxCell>
        <mxCell id="ChUtcl5LDInXRiSF2QFf-99" value="1" style="edgeLabel;html=1;align=center;verticalAlign=middle;resizable=0;points=[];" vertex="1" connectable="0" parent="ChUtcl5LDInXRiSF2QFf-38">
          <mxGeometry x="-0.4471" relative="1" as="geometry">
            <mxPoint as="offset" />
          </mxGeometry>
        </mxCell>
        <mxCell id="ChUtcl5LDInXRiSF2QFf-39" value="Endereço" style="rounded=1;whiteSpace=wrap;html=1;" vertex="1" parent="WIyWlLk6GJQsqaUBKTNV-1">
          <mxGeometry x="310" y="140" width="120" height="60" as="geometry" />
        </mxCell>
        <mxCell id="ChUtcl5LDInXRiSF2QFf-40" value="" style="endArrow=none;html=1;rounded=0;exitX=0.5;exitY=0;exitDx=0;exitDy=0;" edge="1" parent="WIyWlLk6GJQsqaUBKTNV-1" source="ChUtcl5LDInXRiSF2QFf-39">
          <mxGeometry width="50" height="50" relative="1" as="geometry">
            <mxPoint x="320" y="170" as="sourcePoint" />
            <mxPoint x="370" y="120" as="targetPoint" />
          </mxGeometry>
        </mxCell>
        <mxCell id="ChUtcl5LDInXRiSF2QFf-41" value="UF" style="ellipse;whiteSpace=wrap;html=1;" vertex="1" parent="WIyWlLk6GJQsqaUBKTNV-1">
          <mxGeometry x="517.5" y="136.25" width="55" height="20" as="geometry" />
        </mxCell>
        <mxCell id="ChUtcl5LDInXRiSF2QFf-42" value="Bairro" style="ellipse;whiteSpace=wrap;html=1;" vertex="1" parent="WIyWlLk6GJQsqaUBKTNV-1">
          <mxGeometry x="450" y="175" width="55" height="20" as="geometry" />
        </mxCell>
        <mxCell id="ChUtcl5LDInXRiSF2QFf-43" value="Tipo" style="ellipse;whiteSpace=wrap;html=1;" vertex="1" parent="WIyWlLk6GJQsqaUBKTNV-1">
          <mxGeometry x="455" y="122.5" width="50" height="25" as="geometry" />
        </mxCell>
        <mxCell id="ChUtcl5LDInXRiSF2QFf-44" value="&lt;font style=&quot;font-size: 8px;&quot;&gt;Logradouro&lt;/font&gt;" style="ellipse;whiteSpace=wrap;html=1;fontSize=8;" vertex="1" parent="WIyWlLk6GJQsqaUBKTNV-1">
          <mxGeometry x="452.5" y="145" width="50" height="30" as="geometry" />
        </mxCell>
        <mxCell id="ChUtcl5LDInXRiSF2QFf-45" value="CEP" style="ellipse;whiteSpace=wrap;html=1;" vertex="1" parent="WIyWlLk6GJQsqaUBKTNV-1">
          <mxGeometry x="457.5" y="100" width="40" height="25" as="geometry" />
        </mxCell>
        <mxCell id="ChUtcl5LDInXRiSF2QFf-46" value="Localidade" style="ellipse;whiteSpace=wrap;html=1;fontSize=9;" vertex="1" parent="WIyWlLk6GJQsqaUBKTNV-1">
          <mxGeometry x="517.5" y="101.25" width="55" height="25" as="geometry" />
        </mxCell>
        <mxCell id="ChUtcl5LDInXRiSF2QFf-47" value="Id&amp;nbsp;" style="ellipse;whiteSpace=wrap;html=1;" vertex="1" parent="WIyWlLk6GJQsqaUBKTNV-1">
          <mxGeometry x="457.5" y="70" width="40" height="25" as="geometry" />
        </mxCell>
        <mxCell id="ChUtcl5LDInXRiSF2QFf-48" value="" style="endArrow=none;html=1;rounded=0;entryX=0;entryY=0.5;entryDx=0;entryDy=0;" edge="1" parent="WIyWlLk6GJQsqaUBKTNV-1" target="ChUtcl5LDInXRiSF2QFf-46">
          <mxGeometry width="50" height="50" relative="1" as="geometry">
            <mxPoint x="497.5" y="113.75" as="sourcePoint" />
            <mxPoint x="547.5" y="63.75" as="targetPoint" />
          </mxGeometry>
        </mxCell>
        <mxCell id="ChUtcl5LDInXRiSF2QFf-49" value="" style="endArrow=none;html=1;rounded=0;edgeStyle=orthogonalEdgeStyle;entryX=0.616;entryY=1.007;entryDx=0;entryDy=0;entryPerimeter=0;exitX=0.5;exitY=0;exitDx=0;exitDy=0;" edge="1" parent="WIyWlLk6GJQsqaUBKTNV-1" source="ChUtcl5LDInXRiSF2QFf-41" target="ChUtcl5LDInXRiSF2QFf-46">
          <mxGeometry width="50" height="50" relative="1" as="geometry">
            <mxPoint x="502.5" y="206.25" as="sourcePoint" />
            <mxPoint x="552.5" y="156.25" as="targetPoint" />
          </mxGeometry>
        </mxCell>
        <mxCell id="ChUtcl5LDInXRiSF2QFf-53" value="" style="endArrow=none;html=1;rounded=0;edgeStyle=orthogonalEdgeStyle;" edge="1" parent="WIyWlLk6GJQsqaUBKTNV-1">
          <mxGeometry width="50" height="50" relative="1" as="geometry">
            <mxPoint x="400" y="140" as="sourcePoint" />
            <mxPoint x="430" y="60" as="targetPoint" />
          </mxGeometry>
        </mxCell>
        <mxCell id="ChUtcl5LDInXRiSF2QFf-54" value="" style="endArrow=none;html=1;rounded=0;edgeStyle=orthogonalEdgeStyle;entryX=0.5;entryY=0;entryDx=0;entryDy=0;" edge="1" parent="WIyWlLk6GJQsqaUBKTNV-1" target="ChUtcl5LDInXRiSF2QFf-47">
          <mxGeometry width="50" height="50" relative="1" as="geometry">
            <mxPoint x="430" y="60" as="sourcePoint" />
            <mxPoint x="480" y="10" as="targetPoint" />
          </mxGeometry>
        </mxCell>
        <mxCell id="ChUtcl5LDInXRiSF2QFf-55" value="preçoCusto" style="ellipse;whiteSpace=wrap;html=1;" vertex="1" parent="WIyWlLk6GJQsqaUBKTNV-1">
          <mxGeometry x="864" y="245" width="70.51" height="45" as="geometry" />
        </mxCell>
        <mxCell id="ChUtcl5LDInXRiSF2QFf-56" value="Tipo" style="ellipse;whiteSpace=wrap;html=1;" vertex="1" parent="WIyWlLk6GJQsqaUBKTNV-1">
          <mxGeometry x="869.99" y="435" width="66" height="35" as="geometry" />
        </mxCell>
        <mxCell id="ChUtcl5LDInXRiSF2QFf-57" value="" style="endArrow=none;html=1;rounded=0;edgeStyle=orthogonalEdgeStyle;entryX=0.5;entryY=0;entryDx=0;entryDy=0;exitX=0.5;exitY=1;exitDx=0;exitDy=0;" edge="1" parent="WIyWlLk6GJQsqaUBKTNV-1" source="ChUtcl5LDInXRiSF2QFf-3" target="ChUtcl5LDInXRiSF2QFf-31">
          <mxGeometry width="50" height="50" relative="1" as="geometry">
            <mxPoint x="781.37" y="150" as="sourcePoint" />
            <mxPoint x="951.37" y="110" as="targetPoint" />
            <Array as="points">
              <mxPoint x="921" y="110" />
              <mxPoint x="899" y="110" />
            </Array>
          </mxGeometry>
        </mxCell>
        <mxCell id="ChUtcl5LDInXRiSF2QFf-60" value="Função" style="ellipse;whiteSpace=wrap;html=1;" vertex="1" parent="WIyWlLk6GJQsqaUBKTNV-1">
          <mxGeometry x="-4.3799999999999955" y="710" width="60" height="30" as="geometry" />
        </mxCell>
        <mxCell id="ChUtcl5LDInXRiSF2QFf-61" value="Contato" style="ellipse;whiteSpace=wrap;html=1;" vertex="1" parent="WIyWlLk6GJQsqaUBKTNV-1">
          <mxGeometry x="-6.8799999999999955" y="670" width="62.5" height="40" as="geometry" />
        </mxCell>
        <mxCell id="ChUtcl5LDInXRiSF2QFf-62" value="Telefone" style="ellipse;whiteSpace=wrap;html=1;" vertex="1" parent="WIyWlLk6GJQsqaUBKTNV-1">
          <mxGeometry x="-7.510000000000005" y="640" width="61.25" height="40" as="geometry" />
        </mxCell>
        <mxCell id="ChUtcl5LDInXRiSF2QFf-63" value="Departamento" style="ellipse;whiteSpace=wrap;html=1;" vertex="1" parent="WIyWlLk6GJQsqaUBKTNV-1">
          <mxGeometry x="-11.879999999999995" y="740" width="80" height="40" as="geometry" />
        </mxCell>
        <mxCell id="ChUtcl5LDInXRiSF2QFf-65" value="Código" style="ellipse;whiteSpace=wrap;html=1;" vertex="1" parent="WIyWlLk6GJQsqaUBKTNV-1">
          <mxGeometry x="-10.629999999999995" y="600" width="72.5" height="40" as="geometry" />
        </mxCell>
        <mxCell id="ChUtcl5LDInXRiSF2QFf-68" value="" style="endArrow=none;html=1;rounded=0;edgeStyle=orthogonalEdgeStyle;" edge="1" parent="WIyWlLk6GJQsqaUBKTNV-1">
          <mxGeometry width="50" height="50" relative="1" as="geometry">
            <mxPoint x="35" y="600" as="sourcePoint" />
            <mxPoint x="85" y="550" as="targetPoint" />
          </mxGeometry>
        </mxCell>
        <mxCell id="ChUtcl5LDInXRiSF2QFf-69" value="" style="triangle;whiteSpace=wrap;html=1;direction=north;" vertex="1" parent="WIyWlLk6GJQsqaUBKTNV-1">
          <mxGeometry x="100" y="415" width="80" height="60" as="geometry" />
        </mxCell>
        <mxCell id="ChUtcl5LDInXRiSF2QFf-70" value="" style="endArrow=none;html=1;rounded=0;exitX=1;exitY=0.5;exitDx=0;exitDy=0;" edge="1" parent="WIyWlLk6GJQsqaUBKTNV-1" source="ChUtcl5LDInXRiSF2QFf-69">
          <mxGeometry width="50" height="50" relative="1" as="geometry">
            <mxPoint x="61.870000000000005" y="390" as="sourcePoint" />
            <mxPoint x="120" y="360" as="targetPoint" />
          </mxGeometry>
        </mxCell>
        <mxCell id="ChUtcl5LDInXRiSF2QFf-72" value="T/S" style="edgeLabel;html=1;align=center;verticalAlign=middle;resizable=0;points=[];" vertex="1" connectable="0" parent="ChUtcl5LDInXRiSF2QFf-70">
          <mxGeometry x="-0.1058" y="2" relative="1" as="geometry">
            <mxPoint x="1" as="offset" />
          </mxGeometry>
        </mxCell>
        <mxCell id="ChUtcl5LDInXRiSF2QFf-71" value="" style="endArrow=none;html=1;rounded=0;exitX=0.5;exitY=0;exitDx=0;exitDy=0;entryX=0;entryY=0.5;entryDx=0;entryDy=0;" edge="1" parent="WIyWlLk6GJQsqaUBKTNV-1" source="ChUtcl5LDInXRiSF2QFf-4" target="ChUtcl5LDInXRiSF2QFf-69">
          <mxGeometry width="50" height="50" relative="1" as="geometry">
            <mxPoint x="100" y="525" as="sourcePoint" />
            <mxPoint x="150" y="475" as="targetPoint" />
          </mxGeometry>
        </mxCell>
        <mxCell id="ChUtcl5LDInXRiSF2QFf-74" value="ItemVenda" style="rounded=1;whiteSpace=wrap;html=1;" vertex="1" parent="WIyWlLk6GJQsqaUBKTNV-1">
          <mxGeometry x="650" y="-120" width="120" height="60" as="geometry" />
        </mxCell>
        <mxCell id="ChUtcl5LDInXRiSF2QFf-76" value="ItemVenda" style="ellipse;whiteSpace=wrap;html=1;" vertex="1" parent="WIyWlLk6GJQsqaUBKTNV-1">
          <mxGeometry x="630" y="395" width="100" height="55" as="geometry" />
        </mxCell>
        <mxCell id="ChUtcl5LDInXRiSF2QFf-77" value="CondiçãoPagamento" style="ellipse;whiteSpace=wrap;html=1;" vertex="1" parent="WIyWlLk6GJQsqaUBKTNV-1">
          <mxGeometry x="620" y="335" width="110" height="60" as="geometry" />
        </mxCell>
        <mxCell id="ChUtcl5LDInXRiSF2QFf-78" value="ValorVenda" style="ellipse;whiteSpace=wrap;html=1;" vertex="1" parent="WIyWlLk6GJQsqaUBKTNV-1">
          <mxGeometry x="630" y="280" width="100" height="55" as="geometry" />
        </mxCell>
        <mxCell id="ChUtcl5LDInXRiSF2QFf-79" value="DataVenda" style="ellipse;whiteSpace=wrap;html=1;" vertex="1" parent="WIyWlLk6GJQsqaUBKTNV-1">
          <mxGeometry x="630" y="220" width="100" height="60" as="geometry" />
        </mxCell>
        <mxCell id="ChUtcl5LDInXRiSF2QFf-80" value="NumeroVenda" style="ellipse;whiteSpace=wrap;html=1;" vertex="1" parent="WIyWlLk6GJQsqaUBKTNV-1">
          <mxGeometry x="630" y="160" width="100" height="60" as="geometry" />
        </mxCell>
        <mxCell id="ChUtcl5LDInXRiSF2QFf-91" value="" style="edgeStyle=orthogonalEdgeStyle;rounded=0;orthogonalLoop=1;jettySize=auto;html=1;endArrow=none;endFill=0;" edge="1" parent="WIyWlLk6GJQsqaUBKTNV-1" source="ChUtcl5LDInXRiSF2QFf-82" target="ChUtcl5LDInXRiSF2QFf-80">
          <mxGeometry relative="1" as="geometry" />
        </mxCell>
        <mxCell id="ChUtcl5LDInXRiSF2QFf-82" value="Venda" style="rounded=1;whiteSpace=wrap;html=1;" vertex="1" parent="WIyWlLk6GJQsqaUBKTNV-1">
          <mxGeometry x="620" y="57.5" width="110" height="50" as="geometry" />
        </mxCell>
        <mxCell id="ChUtcl5LDInXRiSF2QFf-83" value="Possui" style="rhombus;whiteSpace=wrap;html=1;" vertex="1" parent="WIyWlLk6GJQsqaUBKTNV-1">
          <mxGeometry x="770" y="55" width="80" height="60" as="geometry" />
        </mxCell>
        <mxCell id="ChUtcl5LDInXRiSF2QFf-85" value="" style="endArrow=none;html=1;rounded=0;" edge="1" parent="WIyWlLk6GJQsqaUBKTNV-1">
          <mxGeometry width="50" height="50" relative="1" as="geometry">
            <mxPoint x="730" y="86" as="sourcePoint" />
            <mxPoint x="770" y="86.25" as="targetPoint" />
          </mxGeometry>
        </mxCell>
        <mxCell id="ChUtcl5LDInXRiSF2QFf-100" value="n" style="edgeLabel;html=1;align=center;verticalAlign=middle;resizable=0;points=[];" vertex="1" connectable="0" parent="ChUtcl5LDInXRiSF2QFf-85">
          <mxGeometry x="-0.3003" y="1" relative="1" as="geometry">
            <mxPoint as="offset" />
          </mxGeometry>
        </mxCell>
        <mxCell id="ChUtcl5LDInXRiSF2QFf-87" value="" style="endArrow=none;html=1;rounded=0;edgeStyle=orthogonalEdgeStyle;exitX=0.5;exitY=0;exitDx=0;exitDy=0;" edge="1" parent="WIyWlLk6GJQsqaUBKTNV-1" source="WIyWlLk6GJQsqaUBKTNV-3" target="ChUtcl5LDInXRiSF2QFf-88">
          <mxGeometry width="50" height="50" relative="1" as="geometry">
            <mxPoint x="150" y="-10" as="sourcePoint" />
            <mxPoint x="570" y="-40" as="targetPoint" />
          </mxGeometry>
        </mxCell>
        <mxCell id="ChUtcl5LDInXRiSF2QFf-97" value="n" style="edgeLabel;html=1;align=center;verticalAlign=middle;resizable=0;points=[];" vertex="1" connectable="0" parent="ChUtcl5LDInXRiSF2QFf-87">
          <mxGeometry x="0.2957" y="3" relative="1" as="geometry">
            <mxPoint as="offset" />
          </mxGeometry>
        </mxCell>
        <mxCell id="ChUtcl5LDInXRiSF2QFf-88" value="realiza" style="rhombus;whiteSpace=wrap;html=1;" vertex="1" parent="WIyWlLk6GJQsqaUBKTNV-1">
          <mxGeometry x="370" y="-20" width="80" height="60" as="geometry" />
        </mxCell>
        <mxCell id="ChUtcl5LDInXRiSF2QFf-89" value="" style="endArrow=none;html=1;rounded=0;edgeStyle=orthogonalEdgeStyle;entryX=0.5;entryY=0;entryDx=0;entryDy=0;exitX=1;exitY=0.5;exitDx=0;exitDy=0;" edge="1" parent="WIyWlLk6GJQsqaUBKTNV-1" source="ChUtcl5LDInXRiSF2QFf-88" target="ChUtcl5LDInXRiSF2QFf-82">
          <mxGeometry width="50" height="50" relative="1" as="geometry">
            <mxPoint x="610" y="-50" as="sourcePoint" />
            <mxPoint x="660" y="-100" as="targetPoint" />
          </mxGeometry>
        </mxCell>
        <mxCell id="ChUtcl5LDInXRiSF2QFf-98" value="n" style="edgeLabel;html=1;align=center;verticalAlign=middle;resizable=0;points=[];" vertex="1" connectable="0" parent="ChUtcl5LDInXRiSF2QFf-89">
          <mxGeometry x="0.1303" y="1" relative="1" as="geometry">
            <mxPoint as="offset" />
          </mxGeometry>
        </mxCell>
        <mxCell id="ChUtcl5LDInXRiSF2QFf-92" value="" style="endArrow=none;html=1;rounded=0;edgeStyle=orthogonalEdgeStyle;exitX=0.827;exitY=-0.03;exitDx=0;exitDy=0;exitPerimeter=0;entryX=0;entryY=0.5;entryDx=0;entryDy=0;" edge="1" parent="WIyWlLk6GJQsqaUBKTNV-1" source="ChUtcl5LDInXRiSF2QFf-82" target="ChUtcl5LDInXRiSF2QFf-74">
          <mxGeometry width="50" height="50" relative="1" as="geometry">
            <mxPoint x="750" y="-70" as="sourcePoint" />
            <mxPoint x="620" y="-120" as="targetPoint" />
          </mxGeometry>
        </mxCell>
        <mxCell id="ChUtcl5LDInXRiSF2QFf-94" value="" style="endArrow=none;html=1;rounded=0;edgeStyle=orthogonalEdgeStyle;exitX=1;exitY=0.5;exitDx=0;exitDy=0;entryX=0.5;entryY=0.125;entryDx=0;entryDy=0;entryPerimeter=0;" edge="1" parent="WIyWlLk6GJQsqaUBKTNV-1" source="ChUtcl5LDInXRiSF2QFf-74" target="ChUtcl5LDInXRiSF2QFf-3">
          <mxGeometry width="50" height="50" relative="1" as="geometry">
            <mxPoint x="827" y="-70" as="sourcePoint" />
            <mxPoint x="940" y="60" as="targetPoint" />
          </mxGeometry>
        </mxCell>
        <mxCell id="ChUtcl5LDInXRiSF2QFf-96" value="n" style="edgeLabel;html=1;align=center;verticalAlign=middle;resizable=0;points=[];" vertex="1" connectable="0" parent="ChUtcl5LDInXRiSF2QFf-94">
          <mxGeometry x="-0.7317" relative="1" as="geometry">
            <mxPoint as="offset" />
          </mxGeometry>
        </mxCell>
        <mxCell id="ChUtcl5LDInXRiSF2QFf-95" value="n" style="text;html=1;align=center;verticalAlign=middle;resizable=0;points=[];autosize=1;strokeColor=none;fillColor=none;" vertex="1" parent="WIyWlLk6GJQsqaUBKTNV-1">
          <mxGeometry x="625" y="-42" width="30" height="30" as="geometry" />
        </mxCell>
        <mxCell id="ChUtcl5LDInXRiSF2QFf-103" value="" style="endArrow=none;html=1;rounded=0;edgeStyle=orthogonalEdgeStyle;entryX=1;entryY=0.75;entryDx=0;entryDy=0;exitX=0;exitY=0.5;exitDx=0;exitDy=0;" edge="1" parent="WIyWlLk6GJQsqaUBKTNV-1" source="ChUtcl5LDInXRiSF2QFf-82" target="ChUtcl5LDInXRiSF2QFf-4">
          <mxGeometry width="50" height="50" relative="1" as="geometry">
            <mxPoint x="600" y="230" as="sourcePoint" />
            <mxPoint x="310" y="602.5" as="targetPoint" />
            <Array as="points">
              <mxPoint x="600" y="83" />
              <mxPoint x="600" y="310" />
              <mxPoint x="398" y="310" />
              <mxPoint x="398" y="570" />
            </Array>
          </mxGeometry>
        </mxCell>
        <mxCell id="ChUtcl5LDInXRiSF2QFf-105" value="1" style="edgeLabel;html=1;align=center;verticalAlign=middle;resizable=0;points=[];" vertex="1" connectable="0" parent="ChUtcl5LDInXRiSF2QFf-103">
          <mxGeometry x="0.7742" y="-3" relative="1" as="geometry">
            <mxPoint as="offset" />
          </mxGeometry>
        </mxCell>
        <mxCell id="ChUtcl5LDInXRiSF2QFf-104" value="Realiza" style="rhombus;whiteSpace=wrap;html=1;" vertex="1" parent="WIyWlLk6GJQsqaUBKTNV-1">
          <mxGeometry x="360" y="415" width="80" height="80" as="geometry" />
        </mxCell>
        <mxCell id="ChUtcl5LDInXRiSF2QFf-106" value="" style="endArrow=none;html=1;rounded=0;edgeStyle=orthogonalEdgeStyle;entryX=0;entryY=0.5;entryDx=0;entryDy=0;exitX=0.5;exitY=0;exitDx=0;exitDy=0;" edge="1" parent="WIyWlLk6GJQsqaUBKTNV-1" source="ChUtcl5LDInXRiSF2QFf-15" target="ChUtcl5LDInXRiSF2QFf-1">
          <mxGeometry width="50" height="50" relative="1" as="geometry">
            <mxPoint x="-90" y="350" as="sourcePoint" />
            <mxPoint x="-10" y="330" as="targetPoint" />
            <Array as="points">
              <mxPoint x="-57" y="350" />
              <mxPoint x="-40" y="350" />
              <mxPoint x="-40" y="351" />
              <mxPoint x="-30" y="351" />
              <mxPoint x="-30" y="330" />
              <mxPoint x="10" y="330" />
            </Array>
          </mxGeometry>
        </mxCell>
      </root>
    </mxGraphModel>
  </diagram>
</mxfile>
